<?xml version="1.0" encoding="utf-8"?>
<svg version="1.1" xmlns:xlink="http://www.w3.org/1999/xlink" width="54px" height="23px" xmlns="http://www.w3.org/2000/svg">
  <g transform="matrix(1 0 0 1 -150 -26 )">
    <path d="M 29.5509312632773 1  L 22.9235061233271 1.00001473244411  L 28.266503652888 9.88881971344097  L 36.1474570306613 23  L 42.9637048492874 22.9999578122872  L 35.6127415300367 10.9427120280205  L 29.5509312632773 1  Z M 40.8348387096774 1  L 33.9235061233271 1.00001473244411  L 39.266503652888 9.88881971344097  L 47.1480302689284 23  L 54 23  L 40.8348387096774 1  Z M 13.6127415300367 10.9427120280205  L 7.55095717075372 1  L 0 1  L 13.1651612903226 23  L 20.9637304716054 22.9999998386956  L 13.6127415300367 10.9427120280205  Z M 18.5506878823021 1  L 11.9234113035785 0.999856986862383  L 17.266503652888 9.88881971344097  L 25.1471829279822 23  L 31.9636446364898 22.9998590496533  L 24.6127415300367 10.9427120280205  L 18.5506878823021 1  Z " fill-rule="nonzero" fill="#00ccff" stroke="none" fill-opacity="0.8" transform="matrix(1 0 0 1 150 26 )" />
  </g>
</svg>