<?xml version="1.0" encoding="utf-8"?>
<svg version="1.1" xmlns:xlink="http://www.w3.org/1999/xlink" width="54px" height="23px" xmlns="http://www.w3.org/2000/svg">
  <g transform="matrix(1 0 0 1 -1716 -26 )">
    <path d="M 24.4490687367227 1  L 31.0764938766729 1.00001473244411  L 25.733496347112 9.88881971344097  L 17.8525429693387 23  L 11.0362951507126 22.9999578122872  L 18.3872584699633 10.9427120280205  L 24.4490687367227 1  Z M 13.1651612903226 1  L 20.0764938766729 1.00001473244411  L 14.733496347112 9.88881971344097  L 6.85196973107159 23  L 0 23  L 13.1651612903226 1  Z M 40.3872584699633 10.9427120280205  L 46.4490428292463 1  L 54 1  L 40.8348387096774 23  L 33.0362695283946 22.9999998386956  L 40.3872584699633 10.9427120280205  Z M 35.4493121176979 1  L 42.0765886964215 0.999856986862383  L 36.733496347112 9.88881971344097  L 28.8528170720178 23  L 22.0363553635102 22.9998590496533  L 29.3872584699633 10.9427120280205  L 35.4493121176979 1  Z " fill-rule="nonzero" fill="#00ccff" stroke="none" fill-opacity="0.8" transform="matrix(1 0 0 1 1716 26 )" />
  </g>
</svg>